<?xml version="1.0" standalone="no"?>
<!DOCTYPE svg PUBLIC "-//W3C//DTD SVG 20010904//EN"
 "http://www.w3.org/TR/2001/REC-SVG-20010904/DTD/svg10.dtd">
<svg version="1.0" xmlns="http://www.w3.org/2000/svg"
 width="2084.000000pt" height="2084.000000pt" viewBox="0 0 2084.000000 2084.000000"
 preserveAspectRatio="xMidYMid meet">
<metadata>
Created by potrace 1.14, written by Peter Selinger 2001-2017
</metadata>
<g transform="translate(0.000000,2084.000000) scale(0.100000,-0.100000)"
fill="#000000" stroke="none">
<path d="M10203 20825 c-200 -37 -396 -138 -544 -279 -124 -119 -152 -168
-535 -932 -201 -401 -371 -737 -377 -749 -6 -11 -12 -22 -12 -25 0 -3 -843
-1690 -1872 -3750 -1305 -2610 -1883 -3776 -1907 -3849 -61 -176 -90 -351 -90
-541 0 -81 13 -261 20 -271 2 -4 6 -24 10 -45 28 -191 60 -261 790 -1721 l692
-1385 -437 -877 c-531 -1066 -642 -1312 -811 -1806 -102 -300 -226 -738 -264
-935 -2 -14 -16 -77 -29 -140 -14 -63 -28 -133 -31 -155 -4 -22 -8 -47 -11
-55 -2 -8 -6 -31 -9 -50 -3 -19 -8 -46 -11 -60 -6 -33 -32 -204 -40 -260 -3
-25 -8 -56 -10 -70 -2 -14 -7 -52 -11 -85 -3 -33 -8 -67 -9 -75 -4 -20 -17
-164 -30 -325 -3 -38 -8 -99 -12 -135 -3 -36 -7 -553 -9 -1150 l-4 -1085 173
345 c96 190 180 356 187 370 8 14 15 27 15 30 1 5 928 1858 947 1893 7 12 13
24 13 27 1 4 1234 2471 1319 2639 l27 53 852 -1703 c469 -937 871 -1735 894
-1774 236 -393 677 -674 1148 -731 125 -15 353 -7 460 16 22 5 52 11 67 14 30
5 51 12 173 53 227 76 472 242 635 431 30 35 61 70 68 77 6 8 12 18 12 23 0 6
4 12 9 14 28 10 186 318 962 1870 473 946 862 1719 864 1717 3 -4 156 -305
563 -1111 133 -262 245 -485 251 -495 6 -10 150 -299 321 -642 171 -343 315
-631 320 -640 5 -9 113 -224 240 -479 126 -254 234 -470 240 -480 5 -9 113
-226 240 -481 127 -255 235 -471 240 -480 5 -9 68 -135 141 -281 72 -146 134
-268 138 -272 8 -9 6 1922 -3 2071 -7 129 -15 252 -21 311 -2 25 -7 81 -10
125 -4 44 -8 90 -10 103 -2 13 -7 53 -11 90 -3 37 -8 74 -9 82 -2 9 -6 43 -10
75 -4 33 -9 69 -11 80 -2 11 -6 40 -9 65 -3 25 -8 56 -11 70 -3 14 -8 41 -10
60 -3 19 -16 96 -30 170 -14 74 -28 146 -30 160 -3 14 -7 33 -10 42 -5 18 -11
46 -20 93 -12 73 -117 475 -163 630 -59 197 -168 524 -201 600 -4 11 -25 63
-45 115 -20 52 -42 109 -49 125 -154 362 -293 649 -733 1515 -258 506 -343
678 -343 689 0 6 312 635 693 1398 636 1273 730 1472 751 1578 2 11 11 47 19
80 9 33 19 87 23 120 3 33 8 69 10 80 7 33 6 266 -1 320 -18 142 -45 264 -87
390 -29 88 -650 1335 -665 1335 -7 0 -1010 -1995 -2229 -4432 -1218 -2438
-2228 -4449 -2242 -4468 -40 -53 -71 -77 -142 -112 -59 -30 -73 -33 -160 -33
-88 0 -101 3 -164 34 -133 65 -67 -54 -1028 1866 l-870 1741 787 1573 c432
866 791 1583 796 1595 5 11 78 157 162 324 l153 303 49 -108 c27 -59 70 -153
95 -208 26 -55 59 -129 76 -165 75 -169 230 -466 269 -518 82 -109 178 -193
295 -259 72 -41 219 -92 289 -101 73 -9 253 -9 313 1 209 33 431 168 566 342
36 47 113 188 235 430 100 198 191 380 202 405 11 25 23 50 27 55 3 6 113 224
243 485 130 261 241 479 246 484 5 6 9 14 9 18 0 5 487 984 1083 2176 595
1192 1114 2234 1153 2316 l71 149 -195 386 c-106 212 -320 637 -474 944 -154
306 -284 557 -288 557 -4 0 -17 -21 -28 -47 -44 -102 -215 -451 -637 -1296
l-437 -878 -115 233 c-644 1305 -1962 3933 -2003 3995 -64 96 -190 222 -289
287 -65 43 -228 122 -271 131 -8 2 -44 11 -80 20 -87 22 -340 28 -437 10z
m338 -2977 c70 -29 133 -81 163 -133 13 -22 289 -569 613 -1215 480 -955 1007
-2001 1052 -2088 5 -9 25 -48 44 -87 l35 -70 -503 -1008 c-276 -554 -504
-1010 -507 -1012 -2 -3 -62 131 -133 298 -142 333 -308 672 -371 757 -122 165
-293 279 -496 333 -64 16 -112 21 -208 22 -69 0 -141 -3 -160 -6 -236 -43
-434 -166 -572 -355 -26 -36 -472 -916 -1078 -2128 l-1033 -2068 -262 524
c-160 321 -274 562 -293 621 -51 152 -73 281 -76 444 -2 94 1 137 19 263 10
72 46 202 79 287 19 48 755 1529 1635 3291 1494 2988 1605 3206 1651 3252 108
106 265 136 401 78z"/>
<path d="M15649 20728 c-50 -102 -431 -858 -816 -1619 l-145 -286 277 -549
c153 -302 368 -727 477 -944 110 -217 203 -398 207 -403 11 -11 165 325 201
438 7 22 15 45 19 50 3 6 6 12 7 15 0 3 4 12 7 20 30 71 127 398 143 480 3 14
11 50 19 80 28 111 66 335 80 470 3 30 8 71 10 90 12 98 17 225 16 410 -1 199
-3 244 -15 380 -10 101 -23 205 -37 282 -6 32 -12 70 -15 85 -15 91 -69 319
-90 384 -8 25 -16 54 -19 65 -22 108 -247 664 -268 664 -2 0 -28 -51 -58 -112z"/>
</g>
</svg>
